<?xml version="1.0" standalone="no"?>
<!DOCTYPE svg PUBLIC "-//W3C//DTD SVG 20010904//EN"
 "http://www.w3.org/TR/2001/REC-SVG-20010904/DTD/svg10.dtd">
<svg version="1.0" xmlns="http://www.w3.org/2000/svg"
 width="325.000000pt" height="325.000000pt" viewBox="0 0 325.000000 325.000000"
 preserveAspectRatio="xMidYMid meet">
<metadata>
Created by potrace 1.14, written by Peter Selinger 2001-2017
</metadata>
<g transform="translate(0.000000,325.000000) scale(0.100000,-0.100000)"
fill="#000000" stroke="none">
<path d="M979 3230 c-3 -94 -1 -269 4 -277 3 -5 20 -10 39 -11 48 -4 128 -44
166 -83 42 -43 81 -122 86 -177 2 -24 6 -44 7 -46 89 -60 152 -119 201 -185
l41 -54 13 32 c25 60 41 165 38 251 -5 154 -62 280 -178 395 -103 102 -214
154 -358 170 -54 6 -58 4 -59 -15z"/>
<path d="M2107 3228 c-37 -10 -95 -32 -129 -50 -58 -31 -186 -134 -187 -151
-1 -5 -12 -23 -26 -41 -23 -30 -74 -133 -79 -159 -1 -7 -8 -39 -15 -72 -17
-77 -9 -199 19 -290 l22 -69 21 29 c50 70 143 157 225 211 2 1 3 12 4 25 2 52
29 124 65 171 48 63 133 107 226 117 4 1 7 68 7 151 l0 150 -42 -3 c-24 -1
-74 -10 -111 -19z"/>
<path d="M830 2501 l0 -178 52 -6 c154 -19 298 -156 327 -312 5 -25 10 -48 12
-50 2 -1 31 -23 64 -47 70 -51 164 -144 208 -206 35 -49 37 -48 63 53 32 128
21 319 -26 440 -78 200 -227 354 -420 432 -73 29 -178 53 -237 53 l-43 0 0
-179z"/>
<path d="M2299 2676 c-2 -2 -20 -7 -41 -10 -230 -36 -467 -238 -551 -471 -40
-112 -58 -306 -36 -390 5 -16 10 -41 12 -55 3 -14 11 -40 19 -59 l14 -34 26
39 c50 74 197 214 263 251 8 5 18 22 21 39 30 174 168 311 333 331 l51 6 0
178 0 179 -53 0 c-30 0 -56 -2 -58 -4z"/>
<path d="M2539 1996 c-2 -2 -33 -6 -69 -10 -95 -8 -125 -15 -210 -45 -131 -46
-225 -106 -330 -211 -166 -164 -248 -341 -267 -575 -6 -75 -23 -106 -53 -98
-22 6 -32 32 -35 88 -16 369 -281 706 -636 809 -77 23 -93 26 -181 33 l-78 6
0 -210 0 -210 58 -7 c72 -8 133 -31 197 -72 65 -43 73 -50 118 -105 63 -79 94
-164 103 -289 14 -196 104 -340 258 -415 250 -122 542 -5 639 256 16 42 24 90
32 195 16 220 188 399 417 432 l53 7 1 208 c1 183 -2 227 -17 213z"/>
<path d="M530 1221 c0 -130 5 -237 14 -291 67 -407 332 -723 722 -863 39 -14
91 -29 115 -32 24 -4 46 -8 49 -10 9 -6 143 -18 195 -18 186 1 411 66 570 165
179 113 335 293 419 484 71 163 93 297 94 571 0 137 -3 193 -11 196 -7 2 -58
3 -114 2 -83 -2 -111 -7 -155 -27 -132 -61 -188 -151 -202 -323 -9 -108 -19
-147 -56 -230 -75 -164 -223 -288 -400 -336 -95 -26 -251 -20 -347 14 -232 80
-392 291 -409 537 -3 41 -8 86 -11 100 -3 14 -7 30 -8 35 -17 73 -99 165 -183
202 -48 21 -74 25 -169 27 l-113 3 0 -206z"/>
</g>
</svg>
